<?xml version="1.0" encoding="UTF-8"?>
<!DOCTYPE svg PUBLIC "-//W3C//DTD SVG 1.1//EN" "http://www.w3.org/Graphics/SVG/1.1/DTD/svg11.dtd">
<!-- Creator: CorelDRAW -->
<svg xmlns="http://www.w3.org/2000/svg" xml:space="preserve" width="1.70666in" height="1.70666in" version="1.1" style="shape-rendering:geometricPrecision; text-rendering:geometricPrecision; image-rendering:optimizeQuality; fill-rule:evenodd; clip-rule:evenodd"
viewBox="0 0 1706.66 1706.66"
 xmlns:xlink="http://www.w3.org/1999/xlink"
 xmlns:xodm="http://www.corel.com/coreldraw/odm/2003">
 <defs>
  <style type="text/css">
   <![CDATA[
    .fil2 {fill:#3F5C6C}
    .fil1 {fill:#89CFF0}
    .fil3 {fill:#F98E25}
    .fil0 {fill:black;fill-rule:nonzero}
   ]]>
  </style>
 </defs>
 <g id="Layer_x0020_1">
  <metadata id="CorelCorpID_0Corel-Layer"/>
  <path class="fil0" d="M1686.65 858.87l-160.09 0c-11.04,0 -20,-8.96 -20,-20l0 -218.06c0,-9.06 6.09,-16.97 14.82,-19.32l87.98 -23.56 0.02 -47.06 -54.52 -72.06c-16.18,-21.4 -11.94,-51.98 9.44,-68.15 8.5,-6.43 18.64,-9.82 29.31,-9.82 15.2,0 29.72,7.21 38.84,19.27l70.15 92.71c2.63,3.47 4.06,7.7 4.06,12.07l0 333.97c0,11.04 -8.97,20 -20.02,20zm-140.07 -40l120.09 0 0 -307.26 -66.1 -87.36c-1.63,-2.15 -4.17,-3.4 -6.94,-3.4 -1.33,0 -3.29,0.29 -5.18,1.72 -3.74,2.83 -4.5,8.39 -1.67,12.13l58.57 77.42c2.63,3.47 4.06,7.7 4.06,12.07l-0.03 69.11c-0.02,9.06 -6.08,16.97 -14.82,19.32l-87.96 23.55 0 182.71 -0.02 0z"/>
  <path class="fil0" d="M1595.02 858.59c-11.04,0 -20,-8.96 -20,-20l0 -119.9 -58.92 -36.24c-9.42,-5.79 -12.36,-18.1 -6.57,-27.51 5.78,-9.42 18.14,-12.35 27.5,-6.56l68.46 42.1c5.93,3.64 9.54,10.1 9.54,17.04l0 131.08c-0.02,11.04 -8.98,19.98 -20.02,19.98z"/>
  <path class="fil0" d="M1686.65 929.74l-75.64 0c-11.04,0 -20,-8.97 -20,-20l0 -70.88c0,-11.04 8.97,-20 20,-20l75.64 0c11.04,0 20,8.96 20,20l0 70.88c0.02,11.04 -8.96,20 -20,20zm-55.62 -40l35.62 0 0 -30.88 -35.62 0 0 30.88z"/>
  <path class="fil0" d="M1536.05 1529.68c-73.22,0 -132.8,-59.57 -132.8,-132.8l0 -69.33c0,-7.32 -5.96,-13.28 -13.28,-13.28l-157.17 -0c-11.04,0 -20,-8.97 -20,-20 0,-11.03 8.97,-20 20,-20l157.17 0c29.37,0 53.29,23.91 53.29,53.29l0 69.33c0,51.17 41.63,92.8 92.79,92.8 51.17,0 92.79,-41.63 92.79,-92.8l-0 -487.13c0,-11.04 8.97,-20 20,-20 11.03,0 20,8.97 20,20l0 487.11c0,73.24 -59.57,132.81 -132.79,132.81z"/>
  <path class="fil0" d="M1542.91 1639.71l-1522.92 0c-11.04,0 -20,-8.97 -20,-20 0,-11.03 8.96,-20 20,-20l1522.92 0c11.04,0 20,8.97 20,20 0,11.03 -8.96,20 -20,20z"/>
  <path class="fil0" d="M1232.8 1639.71l-902.69 0c-11.04,0 -20,-8.97 -20,-20l0 -1459.07c0,-51.67 42.02,-93.7 93.69,-93.7l755.31 0c51.67,0 93.7,42.03 93.7,93.7l0 1459.06c-0,11.04 -8.96,20.01 -20,20.01zm-882.69 -40.01l862.68 0 0 -1439.06c0,-29.59 -24.07,-53.7 -53.68,-53.7l-755.31 0c-29.59,0 -53.69,24.09 -53.69,53.7l0 1439.06z"/>
  <path class="fil0" d="M1100.16 615.43l-642.94 0c-27.28,0 -49.47,-22.2 -49.47,-49.47l-0 -335.3c0,-27.28 22.19,-49.47 49.47,-49.47l642.95 0c27.28,0 49.49,22.2 49.49,49.47l0 335.29c-0.02,27.28 -22.21,49.48 -49.49,49.48zm-642.94 -394.24c-5.14,0 -9.47,4.35 -9.47,9.47l0 335.29c0,5.14 4.35,9.47 9.47,9.47l642.94 0.01c5.14,0 9.47,-4.35 9.47,-9.47l0 -335.3c0,-5.14 -4.34,-9.47 -9.47,-9.47l-642.94 0z"/>
  <path class="fil0" d="M1108.91 752.67l-137.25 0c-11.04,0 -20,-8.96 -20,-20 0,-11.04 8.97,-20 20,-20l137.25 0c11.04,0 20,8.96 20,20 0,11.04 -8.96,20 -20,20z"/>
  <path class="fil0" d="M1108.91 865.05l-137.25 0c-11.04,0 -20,-8.96 -20,-20 0,-11.04 8.97,-20 20,-20l137.25 0c11.04,0 20,8.96 20,20 0,11.04 -8.96,20 -20,20z"/>
  <path class="fil0" d="M857.44 880.72l-408.97 0c-11.04,0 -20,-8.97 -20,-20l0 -143.7c0,-11.04 8.96,-20 20,-20l408.97 0c11.04,0 20,8.96 20,20l0 143.7c0.02,11.04 -8.95,20 -20,20zm-388.97 -40l368.97 0 0 -103.7 -368.97 0 0 103.7z"/>
  <path class="fil0" d="M792.36 1442.98c-94.34,0 -171.06,-76.74 -171.06,-171.07 0,-57.63 58,-134.37 109.17,-202.08 17.23,-22.8 33.51,-44.32 45.15,-62.13 7.39,-11.31 26.08,-11.29 33.47,-0.02 11.64,17.79 27.92,39.32 45.14,62.13 51.2,67.7 109.2,144.46 109.2,202.1 0,94.32 -76.74,171.07 -171.07,171.07zm0 -389.25c-9.17,12.67 -19.39,26.21 -29.98,40.21 -45.04,59.6 -101.08,133.75 -101.08,177.96 0,72.26 58.79,131.07 131.07,131.07 72.28,0 131.06,-58.8 131.06,-131.07 0,-44.22 -56.04,-118.37 -101.1,-177.98 -10.59,-14 -20.81,-27.53 -29.97,-40.19z"/>
  <path class="fil1" d="M457.22 575.42l642.94 0.01c5.14,0 9.47,-4.35 9.47,-9.47l0 -335.3c0,-5.14 -4.34,-9.47 -9.47,-9.47l-642.94 0c-5.14,0 -9.47,4.35 -9.47,9.47l0 335.29c0,5.14 4.35,9.47 9.47,9.47z"/>
  <polygon class="fil2" points="837.44,737.02 468.47,737.02 468.47,840.72 837.44,840.72 "/>
  <path class="fil2" d="M792.36 1053.73c-9.17,12.67 -19.39,26.21 -29.98,40.21 -45.04,59.6 -101.08,133.75 -101.08,177.96 0,72.26 58.79,131.07 131.07,131.07 72.28,0 131.06,-58.8 131.06,-131.07 0,-44.22 -56.04,-118.37 -101.1,-177.98 -10.59,-14 -20.81,-27.53 -29.97,-40.19z"/>
  <path class="fil3" d="M854.23 1069.81c51.2,67.7 109.2,144.46 109.2,202.1 0,94.32 -76.74,171.07 -171.07,171.07 -94.34,0 -171.06,-76.74 -171.06,-171.07 0,-57.63 58,-134.37 109.17,-202.08 17.23,-22.8 33.51,-44.32 45.15,-62.13 7.39,-11.31 26.08,-11.29 33.47,-0.02 11.64,17.79 27.92,39.32 45.14,62.13zm-504.13 529.9l862.68 0 0 -305.44 0 -1133.61c0,-29.59 -24.07,-53.7 -53.68,-53.7l-755.31 0c-29.59,0 -53.69,24.09 -53.69,53.7l0 1439.06zm507.33 -718.99l-408.97 0c-11.04,0 -20,-8.97 -20,-20l0 -143.7c0,-11.04 8.96,-20 20,-20l408.97 0c11.04,0 20,8.96 20,20l0 143.7c0.02,11.04 -8.95,20 -20,20zm242.72 -265.29l-642.94 0c-27.28,0 -49.47,-22.2 -49.47,-49.47l-0 -335.3c0,-27.28 22.19,-49.47 49.47,-49.47l642.95 0c27.28,0 49.49,22.2 49.49,49.47l0 335.29c-0.02,27.28 -22.21,49.48 -49.49,49.48zm8.75 249.62l-137.25 0c-11.04,0 -20,-8.96 -20,-20 0,-11.04 8.97,-20 20,-20l137.25 0c11.04,0 20,8.96 20,20 0,11.04 -8.96,20 -20,20zm0 -112.37l-137.25 0c-11.04,0 -20,-8.96 -20,-20 0,-11.04 8.97,-20 20,-20l137.25 0c11.04,0 20,8.96 20,20 0,11.04 -8.96,20 -20,20z"/>
  <path class="fil2" d="M1615.04 707.52l0 111.34 51.62 0 0 -307.26 -66.1 -87.36c-1.63,-2.15 -4.17,-3.4 -6.94,-3.4 -1.33,0 -3.29,0.29 -5.18,1.72 -3.74,2.83 -4.5,8.39 -1.67,12.13l58.57 77.42c2.63,3.47 4.06,7.7 4.06,12.07l-0.03 69.11c-0.02,9.06 -6.08,16.97 -14.82,19.32l-87.96 23.55 0 18.1 58.91 36.23c5.93,3.64 9.54,10.1 9.54,17.04z"/>
  <polygon class="fil2" points="1575.02,818.87 1575.02,718.69 1546.59,701.2 1546.57,818.87 "/>
  <polygon class="fil2" points="1631.02,858.87 1631.02,889.74 1648.84,889.74 1666.65,889.74 1666.65,858.87 "/>
 </g>
</svg>
